<svg width="24" height="24" viewBox="0 0 24 24" fill="none" xmlns="http://www.w3.org/2000/svg">
<path d="M21.8109 6.22663C21.8689 6.14663 21.7829 6.04163 21.6909 6.07763C21.0316 6.33334 20.343 6.50568 19.6409 6.59063C20.4208 6.12478 21.0254 5.4148 21.3609 4.57063C21.3949 4.48463 21.3009 4.40763 21.2209 4.45263C20.4939 4.85363 19.7109 5.14263 18.8959 5.30963C18.8792 5.313 18.8618 5.31201 18.8455 5.30676C18.8292 5.30151 18.8146 5.29216 18.8029 5.27963C18.1896 4.6325 17.3821 4.20294 16.5027 4.05604C15.6233 3.90914 14.7199 4.0529 13.9296 4.46555C13.1392 4.87819 12.5049 5.53722 12.1228 6.34277C11.7407 7.14832 11.6315 8.05648 11.8119 8.92963C11.8152 8.94483 11.8149 8.96057 11.8111 8.97563C11.8073 8.9907 11.8001 9.0047 11.79 9.01657C11.78 9.02844 11.7674 9.03785 11.7532 9.0441C11.7389 9.05035 11.7235 9.05327 11.7079 9.05263C10.1254 8.95434 8.57961 8.53376 7.16542 7.81669C5.75124 7.09962 4.49846 6.10118 3.48395 4.88263C3.47382 4.86995 3.4607 4.85999 3.44577 4.85363C3.43084 4.84728 3.41456 4.84473 3.3984 4.84621C3.38225 4.8477 3.36671 4.85318 3.35319 4.86215C3.33967 4.87112 3.32859 4.88331 3.32095 4.89763C3.00521 5.49658 2.84044 6.16355 2.84095 6.84063C2.83967 7.51501 3.00516 8.17924 3.3227 8.77419C3.64024 9.36914 4.09996 9.87634 4.66095 10.2506C4.06662 10.2345 3.48314 10.0877 2.95195 9.82063C2.88395 9.78563 2.80195 9.83463 2.80495 9.91063C2.84486 10.8117 3.17177 11.6765 3.73795 12.3786C4.33951 13.1072 5.17423 13.6056 6.10095 13.7896C5.7442 13.8982 5.37382 13.9554 5.00095 13.9596C4.79821 13.9572 4.59582 13.9421 4.39495 13.9146C4.31995 13.9046 4.25895 13.9746 4.28495 14.0446C4.57137 14.82 5.08492 15.4909 5.75854 15.9699C6.43215 16.4489 7.23454 16.7137 8.06095 16.7296C6.46526 17.9847 4.4616 18.6048 2.43595 18.4706C2.32995 18.4636 2.28095 18.6046 2.37195 18.6586C4.16316 19.7216 6.20809 20.2812 8.29095 20.2786C9.83055 20.2946 11.3579 20.0037 12.7838 19.4228C14.2097 18.8419 15.5056 17.9828 16.5958 16.8955C17.686 15.8082 18.5486 14.5146 19.1332 13.0902C19.7179 11.6659 20.0129 10.1393 20.0009 8.59963V8.11963C20.0009 8.1041 20.0046 8.08879 20.0115 8.0749C20.0184 8.06102 20.0285 8.04894 20.0409 8.03963C20.7189 7.52788 21.3156 6.91665 21.8109 6.22663Z" fill="#C7C7CC"/>
</svg>
